<svg width="1874" height="509" viewBox="0 0 1874 509" fill="none" xmlns="http://www.w3.org/2000/svg">
<path class="path" d="M210.99 253.607C274.467 253.607 342.219 246.797 404.607 258.928C435.806 264.994 469.495 271.166 494.824 291.313C512.73 305.557 521.354 330.027 523.161 352.614C526.001 388.12 510.273 409.64 477.243 423.283C451.15 434.061 416.114 437.703 388.068 438.782C362.244 439.775 335.932 440.9 312.541 428.488C247.866 394.171 188.696 333.537 172.706 259.738C165.691 227.364 162.467 186.907 171.665 154.717C181.669 119.701 207.419 87.3761 234.816 64.1536C280.347 25.5607 329.658 2.25526 390.034 1.69623C440.207 1.23166 493.187 21.8804 535.884 47.4983C552.978 57.7551 566.317 69.3795 577.406 86.0136C589.573 104.264 591.921 126.317 596.143 147.43C601.01 171.766 604.22 197.983 604.471 222.841C604.718 247.333 607.916 275.637 601.001 299.525C594.427 322.235 573.767 344.455 557.512 360.71C529.204 389.019 499.493 413.981 462.67 430.454C408.113 454.861 346.36 469.03 287.673 479.148C231.515 488.83 163.325 498.229 108.051 480.073C71.2534 467.986 45.183 446.527 25.237 413.452C2.23242 375.305 0.796972 330.808 3.02993 287.265C4.28036 262.882 16.8834 240.888 28.2442 219.834C46.8673 185.322 69.7388 153.264 93.5931 122.216C126.439 79.4637 170.666 43.5765 221.399 24.5972C305.973 -7.04199 402.629 0.892624 486.265 31.3056C514.678 41.6379 541.787 51.1112 566.303 69.2427C590.104 86.8461 602.957 109.231 614.649 135.864C625.291 160.105 628.269 188.899 629.338 215.092C630.802 250.951 613.749 278.742 591.517 305.655C529.796 380.37 424.283 418.752 329.543 415.881C246.457 413.363 223.713 315.557 223.713 248.403C223.713 194.693 279.206 152.237 324.685 133.088C375.483 111.699 426.731 101.936 481.638 101.628C515.251 101.439 551.768 96.9045 579.951 118.746C600.614 134.76 613.82 162.378 614.765 188.374C615.249 201.692 616.858 217.502 613.03 230.475C606.695 251.942 592.791 270.746 577.406 286.571C538.467 326.622 487.225 352.669 432.366 362.33C401.924 367.69 361.004 378.611 331.741 363.486C295.679 344.848 280.179 291.266 279.693 253.376C279.394 230.082 277.718 205.003 290.334 184.326C299.524 169.264 316.334 155.321 332.203 147.893C379.863 125.584 433.431 129.439 481.407 147.43C550.101 173.19 626.983 221.356 611.873 305.655C606.926 333.258 580.655 358.357 554.968 366.725C504.3 383.23 464.864 338.394 442.313 298.253C416.188 251.749 404.096 169.224 445.783 127.536C484.152 89.1671 525.911 79.9498 578.1 83.3534C613.188 85.6418 646.953 112.146 666.003 140.722C678.882 160.04 684.483 190.485 672.017 210.928C646.486 252.8 593.746 256.245 549.069 255.342C518.891 254.733 489.075 235.856 464.983 219.372C441.451 203.271 415.995 182.884 401.369 157.84C386.547 132.46 388.04 104.467 412.935 87.5172C449.771 62.4376 499.915 68.3174 541.898 68.3174C571.292 68.3174 602.737 72.2641 627.256 90.2931C648.627 106.007 658.926 135.035 663.69 160.153C671.087 199.154 671.957 239.554 657.444 277.087C633.596 338.763 576.272 376.965 515.874 397.028C481.853 408.329 446.752 410.701 411.2 412.758C390.938 413.93 369.846 415.412 349.784 411.37C305.928 402.534 287.378 359.325 282.006 319.419C278.544 293.7 279.693 267.468 279.693 241.579C279.693 222.455 277.947 202.785 285.129 184.673C302.416 141.079 330.547 103.767 371.528 79.8836C409.229 57.9122 456.989 51.9408 499.913 51.6621C527.092 51.4856 556.707 48.1525 582.727 57.4452C597.327 62.6598 609.723 67.3379 622.052 77.1077C631.99 84.9834 640.51 94.8824 650.273 102.553C662.464 112.132 668.944 135.198 672.711 149.512C676.472 163.803 678.457 177.971 681.617 192.191C686.415 213.783 695.366 230.446 704.865 249.444C708.925 257.562 719.354 263.733 726.263 269.106C736.057 276.724 749.304 282.023 760.614 287.381C782.528 297.761 808.833 300.243 832.44 304.614C893.859 315.988 914.216 234.663 920.921 189.3C923.712 170.424 925.588 151.967 925.085 132.857C924.724 119.14 911.818 112.444 901.028 106.833C887.393 99.7427 872.709 94.5133 859.389 87.0546C845.105 79.0552 823.111 80.8089 807.342 80.8089C779.133 80.8089 748.334 82.8424 734.012 112.038C726.943 126.449 729.924 157.324 732.855 172.413C742.523 222.182 776.438 272.443 810.118 309.009C830.737 331.396 859.194 362.865 890.618 369.038C934.13 377.585 974.832 367.868 1010.91 342.204C1047.7 316.029 1077.36 283.82 1102.28 246.436C1107.7 238.298 1121.41 222.468 1117.66 211.969C1114.29 202.527 1103.89 197.358 1096.5 191.381C1083.46 180.851 1071.38 169.263 1058.21 158.881C1042.55 146.528 1026.71 134.401 1011.48 121.522C990.414 103.693 960.955 101.628 934.338 101.628C920.02 101.628 897.885 97.58 884.604 103.71C868.467 111.158 855.299 125.66 850.368 142.919C844.669 162.865 845.973 183.355 845.973 203.873C845.973 237.667 863.561 267.665 887.611 291.082C900.042 303.186 915.3 310.643 930.174 319.188C946.647 328.651 962.685 338.61 980.603 345.212C1014.06 357.539 1046.28 367.442 1082.15 369.732C1096.83 370.669 1114.03 371.823 1127.84 365.684C1147 357.169 1163.22 336.563 1174.68 319.997C1203.95 277.694 1215.15 219.469 1218.4 169.059C1220.2 141.257 1226.95 94.3482 1201.52 74.5631C1182.19 59.5336 1146.07 64.5124 1124.49 72.9439C1100.89 82.1621 1075.63 89.3503 1051.27 96.4232C1041.02 99.3989 1032.33 103.833 1026.98 113.194C1022.84 120.447 1022.94 126.458 1022.94 134.707C1022.94 154.12 1022.42 173.598 1022.94 193.001C1023.95 231.686 1040.2 275.603 1053.7 311.67C1061.34 332.075 1071.51 358.273 1090.13 371.467C1156.21 418.27 1235.18 328.658 1263.05 276.971C1276.69 251.669 1287.81 225.262 1293.12 196.933C1297.35 174.388 1282.99 169.648 1264.67 163.16C1243.02 155.493 1214.59 155.792 1191.8 158.071C1178.53 159.398 1165.49 164.772 1155.37 173.338C1147.4 180.083 1149.93 194.597 1149.93 203.757C1149.93 226.886 1158.29 248.974 1173.76 266.562C1207.21 304.609 1272.07 300.653 1302.72 262.051C1318.87 241.721 1326.9 219.183 1313.25 194.967C1298.79 169.325 1261.27 165.983 1235.06 166.167C1202.77 166.395 1182.6 180.864 1158.03 200.634C1145.63 210.61 1135.68 224.636 1135.36 241.116C1135.14 252.547 1134.92 258.029 1148.31 255.227C1160.08 252.764 1166.88 240.36 1172.6 230.822C1184.86 210.397 1189.26 190.258 1190.53 166.746C1193.32 114.915 1169.65 70.4125 1125.87 41.5995C1083.65 13.8047 1022.45 13.2709 979.678 40.0959C957.024 54.3048 936.699 73.9493 919.418 94.2256C901.237 115.557 881.914 138.675 872.575 165.473C860.139 201.16 852.602 256.987 876.507 289.231C897.574 317.647 926.241 341.248 962.56 346.137C981.01 348.621 1004.7 347.393 1020.39 336.421C1047.33 317.587 1066.81 282.51 1077.99 252.451C1097.4 200.253 1110.38 140.832 1110.38 84.857C1110.38 73.6392 1111.44 62.3098 1102.97 53.5127C1091.52 41.6218 1060.6 47.2932 1046.76 47.9609C987.408 50.8245 925.641 74.5051 875.582 105.792C856.865 117.49 841.149 132.557 827.814 150.09C812.186 170.638 810.304 194.156 810.927 219.719C811.546 245.082 822.098 266.901 834.638 288.306C853.456 320.426 872.213 351.77 896.054 380.488C915.965 404.471 937.377 424.118 961.634 443.524C977.991 456.61 998.226 467.657 1019.7 468.044C1038.01 468.374 1052.32 465.1 1063.99 450.117C1083.38 425.251 1097.28 395.122 1107.83 365.568C1126.88 312.231 1134.52 253.876 1130.73 197.396C1127.87 154.805 1094.36 122.887 1054.86 111.344C1024.94 102.602 992.216 102.006 961.287 100.587C922.916 98.8269 877.934 95.4548 840.884 107.18C806.097 118.188 775.324 137.193 760.73 171.488C753.181 189.227 754.116 209.021 754.369 227.931C754.831 262.601 762.109 290.868 776.576 322.079C795.626 363.178 817.802 402.172 841.809 440.517C859.269 468.405 877.9 493.023 910.512 503.321C929.495 509.316 956.646 506.498 976.323 505.287C1008.31 503.319 1042.5 487.03 1066.77 466.656C1099.26 439.385 1120.65 404.365 1122.64 361.636C1124.34 325.062 1114.19 295.295 1095.8 264.48C1079.46 237.089 1034.44 234.87 1006.51 234.87C991.999 234.87 980.7 260.276 976.208 271.304C967.917 291.655 966.724 313.43 966.724 335.033C966.724 356.568 967.582 371.077 981.297 388.932C996.371 408.556 1019.96 420.047 1044.22 421.78C1057.72 422.744 1073.09 423.56 1085.39 416.922C1107.39 405.05 1128.2 386.72 1146.92 370.195C1169.96 349.872 1184.41 325.209 1198.74 298.6C1204.94 287.095 1184.8 298.375 1182.32 300.335C1158.93 318.802 1141.32 342.313 1133.28 371.582C1126.47 396.34 1126.49 421.293 1127.03 446.763C1127.32 460.243 1139.18 459.717 1149.24 459.717C1196.7 459.717 1227.01 410.145 1242.46 370.426C1246.86 359.123 1230.26 364.437 1226.04 369.154C1216.01 380.362 1220.07 401.51 1227.89 412.758C1240.96 431.568 1260.19 447.949 1283.17 451.852C1303.49 455.302 1316.82 449.944 1334.41 440.864C1345.92 434.925 1364.16 428.466 1373.51 419.119C1380.24 412.385 1366.63 420.16 1374.78 420.16C1378.75 420.16 1396.4 414.756 1397.56 410.676C1400.52 400.333 1412.25 397.104 1412.25 384.305C1412.25 377.398 1413.46 369.946 1409.71 363.949C1405.08 356.539 1401.84 364.923 1401.84 369.154C1401.84 384.034 1412.31 392.126 1426.36 393.096C1454.02 395.003 1480.81 396.758 1495.07 367.187C1501.39 354.062 1500.31 336.253 1501.77 322.195C1503.92 301.555 1504.01 281.047 1503.86 260.316C1503.76 247.664 1505.75 210.564 1489.28 204.683C1472.18 198.574 1459.78 213.003 1447.65 222.379C1416.06 246.782 1392.11 284.54 1383.57 323.467C1378.96 344.441 1375.88 376.029 1389.35 394.252C1399.91 408.537 1418.27 418.643 1436.19 414.84C1452.06 411.475 1472.59 395.53 1484.08 384.537C1495.6 373.513 1501.77 363.703 1501.77 348.334C1501.77 331.736 1476.76 324.017 1464.18 318.147C1457.09 314.836 1424.81 304.791 1418.5 314.446C1411.89 324.551 1413.99 341.766 1414.33 353.077C1415.33 385.525 1446.38 404.512 1475.64 405.471C1492.22 406.015 1506.92 406.122 1522.13 398.647C1544.58 387.621 1563.38 374.175 1580.31 355.852C1607.95 325.941 1630.85 289.332 1630.85 247.362C1630.85 218.417 1588.48 239.341 1575.57 247.593C1549.22 264.427 1517.5 287.064 1510.1 319.535C1499.04 368.087 1549.74 394.424 1590.26 365.915C1616.51 347.442 1628.77 313.33 1628.77 282.754C1628.77 252.077 1594.65 248.923 1570.48 256.615C1532.88 268.577 1455.68 332.891 1514.38 368.113C1568.73 400.719 1614.2 350.462 1614.2 296.171C1614.2 271.67 1578.85 277.615 1562.38 279.053C1532.63 281.651 1494.98 302.45 1482.11 330.523C1475 346.04 1473.36 364.372 1488.47 375.399C1508.76 390.2 1535.01 402.18 1560.53 392.17C1597.31 377.746 1615.12 333.877 1621.14 298.022C1622.93 287.337 1624.41 272.636 1621.95 261.819C1618.41 246.257 1601.12 243.768 1587.71 243.314C1540.53 241.714 1501.22 264.573 1468.81 296.981C1452.45 313.339 1441.4 339.985 1448.92 363.37C1452.14 373.398 1467.65 381.884 1475.64 386.85C1489.24 395.312 1502.47 400.066 1518.2 402.464C1557.05 408.391 1593.99 408.125 1624.61 380.141C1650 356.929 1669.9 327.75 1674.11 293.164C1678.19 259.639 1655.28 239.511 1627.96 224.692C1578.28 197.744 1497.6 196.73 1473.09 258.003C1461.8 286.234 1457.62 328.182 1474.71 355.159C1490.53 380.136 1516.97 401.848 1543.41 415.071C1580.12 433.423 1612.38 456.941 1655.37 457.635C1682.64 458.075 1697 449.01 1715.29 428.951C1737.46 404.628 1753.61 374.732 1763.05 343.245C1767.58 328.169 1765.51 323.474 1749.52 318.147C1734.73 313.216 1720.27 313.983 1704.88 313.983C1698.1 313.983 1696.37 318.34 1694.35 324.624C1689.27 340.422 1683.18 358.088 1682.9 374.821C1682.46 401.284 1689.18 427.879 1709.97 446.069C1716.56 451.837 1730.33 449.307 1737.96 449.307C1758.9 449.307 1778 442.375 1794.86 430.57C1826.93 408.125 1733.54 392.575 1766.18 423.399C1782.43 438.75 1810.99 436.816 1831.64 436.816C1856.01 436.816 1872.35 429.063 1872.35 403.505" stroke="black" stroke-linecap="round" stroke-linejoin="round" stroke-miterlimit="1.5" stroke-width="5"/>
<style>
@media (prefers-reduced-motion: no-preference){
  .path {
    stroke-dasharray: 10;
    stroke-dashoffset: 10;
    animation-name: dash;
        animation-fill-mode: forwards;
        animation-timing-function: linear;
        animation-duration: 50s;
        animation-iteration-count: infinite;
  }

  @keyframes dash {
    to {
      stroke-dashoffset: 1500;
    }
  }
}
</style>
</svg>
